<svg aria-hidden="true" style="position: absolute; width: 0; height: 0; overflow: hidden;" version="1.1" xmlns="http://www.w3.org/2000/svg" xmlns:xlink="http://www.w3.org/1999/xlink">
<defs>
<rect width="14" height="14" fill="white" />
<symbol id="pencil" viewBox="0 0 32 32">
<path stroke-linejoin="round" stroke-linecap="round" stroke-miterlimit="4" stroke-width="2.6" d="M2.007 26.315c0.092-0.827 0.138-1.241 0.263-1.627 0.111-0.343 0.268-0.669 0.466-0.97 0.224-0.339 0.518-0.633 1.106-1.222l18.246-18.246c1.565-1.565 4.102-1.565 5.667 0v0c1.565 1.565 1.565 4.102 0 5.667l-18.246 18.246c-0.588 0.588-0.883 0.882-1.222 1.106-0.301 0.198-0.627 0.355-0.97 0.466-0.386 0.125-0.8 0.171-1.627 0.263l-4.144 0.46 0.46-4.144z"></path>
</symbol>
</defs>
</svg>
