<svg width="16" height="16" viewBox="0 0 16 16" fill="none" xmlns="http://www.w3.org/2000/svg">
<path id="Icon" d="M1.00364 13.1573C1.04959 12.7438 1.07256 12.537 1.13512 12.3438C1.19062 12.1724 1.26904 12.0092 1.36824 11.8588C1.48006 11.6892 1.62715 11.5421 1.92133 11.2479L11.0443 2.12498C11.8267 1.34258 13.0952 1.34258 13.8776 2.12498V2.12498C14.66 2.90738 14.66 4.17591 13.8776 4.95831L4.75466 14.0813C4.46048 14.3754 4.31339 14.5225 4.14382 14.6343C3.99338 14.7335 3.83023 14.812 3.65878 14.8675C3.46554 14.93 3.2588 14.953 2.8453 14.9989L0.773438 15.2291L1.00364 13.1573Z" stroke="#23262A" stroke-width="1.3" stroke-linecap="round" stroke-linejoin="round"/>
</svg>
